<svg xmlns="http://www.w3.org/2000/svg" width="224" height="32" shape-rendering="crispEdges"><g fill="#0ff"><rect x="8" y="4" width="12" height="4"/><rect x="32" y="4" width="12" height="4"/><rect x="52" y="4" width="8" height="4"/><rect x="68" y="4" width="24" height="4"/><rect x="96" y="4" width="28" height="4"/><rect x="132" y="4" width="20" height="4"/><rect x="160" y="4" width="8" height="4"/><rect x="192" y="4" width="8" height="4"/><rect x="8" y="8" width="12" height="4"/><rect x="32" y="8" width="16" height="4"/><rect x="52" y="8" width="8" height="4"/><rect x="64" y="8" width="8" height="4"/><rect x="104" y="8" width="12" height="4"/><rect x="128" y="8" width="8" height="4"/><rect x="148" y="8" width="8" height="4"/><rect x="160" y="8" width="8" height="4"/><rect x="192" y="8" width="8" height="4"/><rect x="8" y="12" width="12" height="4"/><rect x="32" y="12" width="8" height="4"/><rect x="44" y="12" width="16" height="4"/><rect x="64" y="12" width="24" height="4"/><rect x="104" y="12" width="12" height="4"/><rect x="128" y="12" width="8" height="4"/><rect x="148" y="12" width="8" height="4"/><rect x="160" y="12" width="8" height="4"/><rect x="192" y="12" width="8" height="4"/><rect x="8" y="16" width="12" height="4"/><rect x="32" y="16" width="8" height="4"/><rect x="48" y="16" width="12" height="4"/><rect x="84" y="16" width="8" height="4"/><rect x="104" y="16" width="12" height="4"/><rect x="128" y="16" width="28" height="4"/><rect x="160" y="16" width="8" height="4"/><rect x="192" y="16" width="8" height="4"/><rect x="8" y="20" width="12" height="4"/><rect x="32" y="20" width="8" height="4"/><rect x="52" y="20" width="8" height="4"/><rect x="64" y="20" width="28" height="4"/><rect x="104" y="20" width="12" height="4"/><rect x="128" y="20" width="8" height="4"/><rect x="148" y="20" width="8" height="4"/><rect x="160" y="20" width="28" height="4"/><rect x="192" y="20" width="28" height="4"/></g><g fill="#006080"><rect x="20" y="8" width="4" height="4"/><rect x="60" y="8" width="4" height="4"/><rect x="168" y="8" width="4" height="4"/><rect x="200" y="8" width="4" height="4"/><rect x="20" y="12" width="4" height="4"/><rect x="60" y="12" width="4" height="4"/><rect x="116" y="12" width="4" height="4"/><rect x="136" y="12" width="4" height="4"/><rect x="156" y="12" width="4" height="4"/><rect x="168" y="12" width="4" height="4"/><rect x="200" y="12" width="4" height="4"/><rect x="20" y="16" width="4" height="4"/><rect x="40" y="16" width="4" height="4"/><rect x="60" y="16" width="4" height="4"/><rect x="116" y="16" width="4" height="4"/><rect x="156" y="16" width="4" height="4"/><rect x="168" y="16" width="4" height="4"/><rect x="200" y="16" width="4" height="4"/><rect x="20" y="20" width="4" height="4"/><rect x="40" y="20" width="4" height="4"/><rect x="60" y="20" width="4" height="4"/><rect x="92" y="20" width="4" height="4"/><rect x="116" y="20" width="4" height="4"/><rect x="156" y="20" width="4" height="4"/></g><g fill="#004060"><rect x="72" y="8" width="4" height="4"/><rect x="92" y="8" width="4" height="4"/><rect x="116" y="8" width="4" height="4"/><rect x="136" y="8" width="4" height="4"/><rect x="40" y="12" width="4" height="4"/><rect x="136" y="20" width="4" height="4"/><rect x="20" y="24" width="4" height="4"/><rect x="40" y="24" width="4" height="4"/><rect x="60" y="24" width="4" height="4"/><rect x="92" y="24" width="4" height="4"/><rect x="116" y="24" width="4" height="4"/><rect x="136" y="24" width="4" height="4"/><rect x="156" y="24" width="4" height="4"/><rect x="188" y="24" width="4" height="4"/><rect x="220" y="24" width="4" height="4"/></g><g fill="#002040"><rect x="76" y="8" width="16" height="4"/><rect x="100" y="8" width="4" height="4"/><rect x="120" y="8" width="8" height="4"/><rect x="140" y="8" width="8" height="4"/><rect x="68" y="16" width="16" height="4"/><rect x="140" y="20" width="8" height="4"/><rect x="12" y="24" width="8" height="4"/><rect x="36" y="24" width="4" height="4"/><rect x="56" y="24" width="4" height="4"/><rect x="68" y="24" width="24" height="4"/><rect x="108" y="24" width="8" height="4"/><rect x="132" y="24" width="4" height="4"/><rect x="152" y="24" width="4" height="4"/><rect x="164" y="24" width="24" height="4"/><rect x="196" y="24" width="24" height="4"/></g></svg>