<svg xmlns="http://www.w3.org/2000/svg" width="576" height="32" shape-rendering="crispEdges"><g fill="#f00"><rect x="4" y="4" width="20" height="4"/><rect x="32" y="4" width="24" height="4"/><rect x="68" y="4" width="24" height="4"/><rect x="100" y="4" width="20" height="4"/><rect x="128" y="4" width="24" height="4"/><rect x="160" y="4" width="28" height="4"/><rect x="224" y="4" width="28" height="4"/><rect x="260" y="4" width="20" height="4"/><rect x="288" y="4" width="12" height="4"/><rect x="308" y="4" width="8" height="4"/><rect x="320" y="4" width="28" height="4"/><rect x="384" y="4" width="28" height="4"/><rect x="416" y="4" width="12" height="4"/><rect x="436" y="4" width="8" height="4"/><rect x="452" y="4" width="24" height="4"/><rect x="488" y="4" width="12" height="4"/><rect x="512" y="4" width="12" height="4"/><rect x="532" y="4" width="8" height="4"/><rect x="544" y="4" width="28" height="4"/><rect x="0" y="8" width="8" height="4"/><rect x="20" y="8" width="8" height="4"/><rect x="32" y="8" width="8" height="4"/><rect x="52" y="8" width="8" height="4"/><rect x="64" y="8" width="8" height="4"/><rect x="96" y="8" width="8" height="4"/><rect x="116" y="8" width="8" height="4"/><rect x="128" y="8" width="8" height="4"/><rect x="148" y="8" width="8" height="4"/><rect x="160" y="8" width="8" height="4"/><rect x="224" y="8" width="8" height="4"/><rect x="256" y="8" width="8" height="4"/><rect x="276" y="8" width="8" height="4"/><rect x="288" y="8" width="16" height="4"/><rect x="308" y="8" width="8" height="4"/><rect x="328" y="8" width="12" height="4"/><rect x="384" y="8" width="8" height="4"/><rect x="416" y="8" width="16" height="4"/><rect x="436" y="8" width="8" height="4"/><rect x="448" y="8" width="8" height="4"/><rect x="488" y="8" width="12" height="4"/><rect x="512" y="8" width="16" height="4"/><rect x="532" y="8" width="8" height="4"/><rect x="544" y="8" width="8" height="4"/><rect x="0" y="12" width="8" height="4"/><rect x="20" y="12" width="8" height="4"/><rect x="32" y="12" width="28" height="4"/><rect x="64" y="12" width="8" height="4"/><rect x="96" y="12" width="8" height="4"/><rect x="116" y="12" width="8" height="4"/><rect x="128" y="12" width="8" height="4"/><rect x="148" y="12" width="8" height="4"/><rect x="160" y="12" width="20" height="4"/><rect x="224" y="12" width="20" height="4"/><rect x="256" y="12" width="8" height="4"/><rect x="276" y="12" width="8" height="4"/><rect x="288" y="12" width="8" height="4"/><rect x="300" y="12" width="16" height="4"/><rect x="328" y="12" width="12" height="4"/><rect x="384" y="12" width="20" height="4"/><rect x="416" y="12" width="8" height="4"/><rect x="428" y="12" width="16" height="4"/><rect x="448" y="12" width="8" height="4"/><rect x="460" y="12" width="16" height="4"/><rect x="488" y="12" width="12" height="4"/><rect x="512" y="12" width="8" height="4"/><rect x="524" y="12" width="16" height="4"/><rect x="544" y="12" width="20" height="4"/><rect x="0" y="16" width="28" height="4"/><rect x="32" y="16" width="8" height="4"/><rect x="48" y="16" width="8" height="4"/><rect x="64" y="16" width="8" height="4"/><rect x="96" y="16" width="28" height="4"/><rect x="128" y="16" width="8" height="4"/><rect x="148" y="16" width="8" height="4"/><rect x="160" y="16" width="8" height="4"/><rect x="224" y="16" width="8" height="4"/><rect x="256" y="16" width="8" height="4"/><rect x="276" y="16" width="8" height="4"/><rect x="288" y="16" width="8" height="4"/><rect x="304" y="16" width="12" height="4"/><rect x="328" y="16" width="12" height="4"/><rect x="384" y="16" width="8" height="4"/><rect x="416" y="16" width="8" height="4"/><rect x="432" y="16" width="12" height="4"/><rect x="448" y="16" width="8" height="4"/><rect x="468" y="16" width="8" height="4"/><rect x="488" y="16" width="12" height="4"/><rect x="512" y="16" width="8" height="4"/><rect x="528" y="16" width="12" height="4"/><rect x="544" y="16" width="8" height="4"/><rect x="0" y="20" width="8" height="4"/><rect x="20" y="20" width="8" height="4"/><rect x="32" y="20" width="8" height="4"/><rect x="52" y="20" width="8" height="4"/><rect x="68" y="20" width="24" height="4"/><rect x="96" y="20" width="8" height="4"/><rect x="116" y="20" width="8" height="4"/><rect x="128" y="20" width="28" height="4"/><rect x="160" y="20" width="28" height="4"/><rect x="224" y="20" width="8" height="4"/><rect x="260" y="20" width="20" height="4"/><rect x="288" y="20" width="8" height="4"/><rect x="308" y="20" width="8" height="4"/><rect x="328" y="20" width="12" height="4"/><rect x="384" y="20" width="28" height="4"/><rect x="416" y="20" width="8" height="4"/><rect x="436" y="20" width="8" height="4"/><rect x="452" y="20" width="24" height="4"/><rect x="488" y="20" width="12" height="4"/><rect x="512" y="20" width="8" height="4"/><rect x="532" y="20" width="8" height="4"/><rect x="544" y="20" width="28" height="4"/></g><g fill="#600000"><rect x="8" y="8" width="4" height="4"/><rect x="40" y="8" width="4" height="4"/><rect x="72" y="8" width="4" height="4"/><rect x="92" y="8" width="4" height="4"/><rect x="104" y="8" width="4" height="4"/><rect x="136" y="8" width="4" height="4"/><rect x="168" y="8" width="4" height="4"/><rect x="188" y="8" width="4" height="4"/><rect x="232" y="8" width="4" height="4"/><rect x="252" y="8" width="4" height="4"/><rect x="264" y="8" width="4" height="4"/><rect x="340" y="8" width="4" height="4"/><rect x="392" y="8" width="4" height="4"/><rect x="412" y="8" width="4" height="4"/><rect x="456" y="8" width="4" height="4"/><rect x="476" y="8" width="4" height="4"/><rect x="552" y="8" width="4" height="4"/><rect x="572" y="8" width="4" height="4"/><rect x="296" y="12" width="4" height="4"/><rect x="424" y="12" width="4" height="4"/><rect x="520" y="12" width="4" height="4"/><rect x="40" y="16" width="4" height="4"/><rect x="60" y="16" width="4" height="4"/><rect x="168" y="16" width="4" height="4"/><rect x="180" y="16" width="4" height="4"/><rect x="232" y="16" width="4" height="4"/><rect x="244" y="16" width="4" height="4"/><rect x="392" y="16" width="4" height="4"/><rect x="404" y="16" width="4" height="4"/><rect x="552" y="16" width="4" height="4"/><rect x="564" y="16" width="4" height="4"/><rect x="8" y="20" width="4" height="4"/><rect x="104" y="20" width="4" height="4"/><rect x="284" y="20" width="4" height="4"/><rect x="8" y="24" width="4" height="4"/><rect x="28" y="24" width="4" height="4"/><rect x="40" y="24" width="4" height="4"/><rect x="60" y="24" width="4" height="4"/><rect x="92" y="24" width="4" height="4"/><rect x="104" y="24" width="4" height="4"/><rect x="124" y="24" width="4" height="4"/><rect x="156" y="24" width="4" height="4"/><rect x="188" y="24" width="4" height="4"/><rect x="232" y="24" width="4" height="4"/><rect x="280" y="24" width="4" height="4"/><rect x="296" y="24" width="4" height="4"/><rect x="316" y="24" width="4" height="4"/><rect x="340" y="24" width="4" height="4"/><rect x="412" y="24" width="4" height="4"/><rect x="424" y="24" width="4" height="4"/><rect x="444" y="24" width="4" height="4"/><rect x="476" y="24" width="4" height="4"/><rect x="500" y="24" width="4" height="4"/><rect x="520" y="24" width="4" height="4"/><rect x="540" y="24" width="4" height="4"/><rect x="572" y="24" width="4" height="4"/></g><g fill="#400000"><rect x="12" y="8" width="8" height="4"/><rect x="44" y="8" width="8" height="4"/><rect x="76" y="8" width="16" height="4"/><rect x="108" y="8" width="8" height="4"/><rect x="140" y="8" width="8" height="4"/><rect x="172" y="8" width="16" height="4"/><rect x="236" y="8" width="16" height="4"/><rect x="268" y="8" width="8" height="4"/><rect x="324" y="8" width="4" height="4"/><rect x="344" y="8" width="8" height="4"/><rect x="396" y="8" width="16" height="4"/><rect x="460" y="8" width="16" height="4"/><rect x="556" y="8" width="16" height="4"/><rect x="44" y="16" width="4" height="4"/><rect x="56" y="16" width="4" height="4"/><rect x="172" y="16" width="8" height="4"/><rect x="236" y="16" width="8" height="4"/><rect x="396" y="16" width="8" height="4"/><rect x="464" y="16" width="4" height="4"/><rect x="556" y="16" width="8" height="4"/><rect x="12" y="20" width="8" height="4"/><rect x="108" y="20" width="8" height="4"/><rect x="280" y="20" width="4" height="4"/><rect x="4" y="24" width="4" height="4"/><rect x="24" y="24" width="4" height="4"/><rect x="36" y="24" width="4" height="4"/><rect x="56" y="24" width="4" height="4"/><rect x="72" y="24" width="20" height="4"/><rect x="100" y="24" width="4" height="4"/><rect x="120" y="24" width="4" height="4"/><rect x="132" y="24" width="24" height="4"/><rect x="164" y="24" width="24" height="4"/><rect x="228" y="24" width="4" height="4"/><rect x="264" y="24" width="16" height="4"/><rect x="292" y="24" width="4" height="4"/><rect x="312" y="24" width="4" height="4"/><rect x="332" y="24" width="8" height="4"/><rect x="388" y="24" width="24" height="4"/><rect x="420" y="24" width="4" height="4"/><rect x="440" y="24" width="4" height="4"/><rect x="456" y="24" width="20" height="4"/><rect x="492" y="24" width="8" height="4"/><rect x="516" y="24" width="4" height="4"/><rect x="536" y="24" width="4" height="4"/><rect x="548" y="24" width="24" height="4"/></g><g fill="#800000"><rect x="316" y="8" width="4" height="4"/><rect x="444" y="8" width="4" height="4"/><rect x="500" y="8" width="4" height="4"/><rect x="540" y="8" width="4" height="4"/><rect x="8" y="12" width="4" height="4"/><rect x="28" y="12" width="4" height="4"/><rect x="60" y="12" width="4" height="4"/><rect x="72" y="12" width="4" height="4"/><rect x="104" y="12" width="4" height="4"/><rect x="124" y="12" width="4" height="4"/><rect x="136" y="12" width="4" height="4"/><rect x="156" y="12" width="4" height="4"/><rect x="264" y="12" width="4" height="4"/><rect x="284" y="12" width="4" height="4"/><rect x="316" y="12" width="4" height="4"/><rect x="340" y="12" width="4" height="4"/><rect x="444" y="12" width="4" height="4"/><rect x="456" y="12" width="4" height="4"/><rect x="500" y="12" width="4" height="4"/><rect x="540" y="12" width="4" height="4"/><rect x="28" y="16" width="4" height="4"/><rect x="72" y="16" width="4" height="4"/><rect x="124" y="16" width="4" height="4"/><rect x="136" y="16" width="4" height="4"/><rect x="156" y="16" width="4" height="4"/><rect x="264" y="16" width="4" height="4"/><rect x="284" y="16" width="4" height="4"/><rect x="296" y="16" width="4" height="4"/><rect x="316" y="16" width="4" height="4"/><rect x="340" y="16" width="4" height="4"/><rect x="424" y="16" width="4" height="4"/><rect x="444" y="16" width="4" height="4"/><rect x="456" y="16" width="4" height="4"/><rect x="476" y="16" width="4" height="4"/><rect x="500" y="16" width="4" height="4"/><rect x="520" y="16" width="4" height="4"/><rect x="540" y="16" width="4" height="4"/><rect x="28" y="20" width="4" height="4"/><rect x="40" y="20" width="4" height="4"/><rect x="124" y="20" width="4" height="4"/><rect x="156" y="20" width="4" height="4"/><rect x="232" y="20" width="4" height="4"/><rect x="296" y="20" width="4" height="4"/><rect x="316" y="20" width="4" height="4"/><rect x="340" y="20" width="4" height="4"/><rect x="424" y="20" width="4" height="4"/><rect x="444" y="20" width="4" height="4"/><rect x="476" y="20" width="4" height="4"/><rect x="500" y="20" width="4" height="4"/><rect x="520" y="20" width="4" height="4"/><rect x="540" y="20" width="4" height="4"/></g></svg>