<svg xmlns="http://www.w3.org/2000/svg" width="160" height="32" shape-rendering="crispEdges"><g fill="#0f0"><rect x="0" y="4" width="8" height="4"/><rect x="20" y="4" width="8" height="4"/><rect x="36" y="4" width="24" height="4"/><rect x="68" y="4" width="20" height="4"/><rect x="100" y="4" width="24" height="4"/><rect x="128" y="4" width="28" height="4"/><rect x="0" y="8" width="8" height="4"/><rect x="20" y="8" width="8" height="4"/><rect x="32" y="8" width="8" height="4"/><rect x="64" y="8" width="8" height="4"/><rect x="84" y="8" width="8" height="4"/><rect x="96" y="8" width="8" height="4"/><rect x="128" y="8" width="8" height="4"/><rect x="0" y="12" width="8" height="4"/><rect x="20" y="12" width="8" height="4"/><rect x="32" y="12" width="24" height="4"/><rect x="64" y="12" width="8" height="4"/><rect x="84" y="12" width="8" height="4"/><rect x="96" y="12" width="8" height="4"/><rect x="108" y="12" width="16" height="4"/><rect x="128" y="12" width="20" height="4"/><rect x="0" y="16" width="8" height="4"/><rect x="20" y="16" width="8" height="4"/><rect x="52" y="16" width="8" height="4"/><rect x="64" y="16" width="28" height="4"/><rect x="96" y="16" width="8" height="4"/><rect x="116" y="16" width="8" height="4"/><rect x="128" y="16" width="8" height="4"/><rect x="4" y="20" width="20" height="4"/><rect x="32" y="20" width="28" height="4"/><rect x="64" y="20" width="8" height="4"/><rect x="84" y="20" width="8" height="4"/><rect x="100" y="20" width="24" height="4"/><rect x="128" y="20" width="28" height="4"/></g><g fill="#008000"><rect x="8" y="8" width="4" height="4"/><rect x="28" y="8" width="4" height="4"/><rect x="8" y="12" width="4" height="4"/><rect x="28" y="12" width="4" height="4"/><rect x="72" y="12" width="4" height="4"/><rect x="92" y="12" width="4" height="4"/><rect x="104" y="12" width="4" height="4"/><rect x="8" y="16" width="4" height="4"/><rect x="28" y="16" width="4" height="4"/><rect x="92" y="16" width="4" height="4"/><rect x="104" y="16" width="4" height="4"/><rect x="124" y="16" width="4" height="4"/><rect x="60" y="20" width="4" height="4"/><rect x="92" y="20" width="4" height="4"/><rect x="124" y="20" width="4" height="4"/></g><g fill="#006000"><rect x="40" y="8" width="4" height="4"/><rect x="60" y="8" width="4" height="4"/><rect x="72" y="8" width="4" height="4"/><rect x="104" y="8" width="4" height="4"/><rect x="124" y="8" width="4" height="4"/><rect x="136" y="8" width="4" height="4"/><rect x="156" y="8" width="4" height="4"/><rect x="136" y="16" width="4" height="4"/><rect x="148" y="16" width="4" height="4"/><rect x="28" y="20" width="4" height="4"/><rect x="72" y="20" width="4" height="4"/><rect x="24" y="24" width="4" height="4"/><rect x="60" y="24" width="4" height="4"/><rect x="72" y="24" width="4" height="4"/><rect x="92" y="24" width="4" height="4"/><rect x="124" y="24" width="4" height="4"/><rect x="156" y="24" width="4" height="4"/></g><g fill="#004000"><rect x="44" y="8" width="16" height="4"/><rect x="76" y="8" width="8" height="4"/><rect x="108" y="8" width="16" height="4"/><rect x="140" y="8" width="16" height="4"/><rect x="36" y="16" width="16" height="4"/><rect x="112" y="16" width="4" height="4"/><rect x="140" y="16" width="8" height="4"/><rect x="24" y="20" width="4" height="4"/><rect x="76" y="20" width="8" height="4"/><rect x="8" y="24" width="16" height="4"/><rect x="36" y="24" width="24" height="4"/><rect x="68" y="24" width="4" height="4"/><rect x="88" y="24" width="4" height="4"/><rect x="104" y="24" width="20" height="4"/><rect x="132" y="24" width="24" height="4"/></g></svg>